<svg width="949" height="1315" viewBox="0 0 949 1315" fill="none" xmlns="http://www.w3.org/2000/svg">
<path d="M475.962 365.037C387.546 365.037 304.101 389.81 232.51 432.751V117.698C232.51 47.364 173.051 -8.10266 102.304 1.24564C43.0462 9.08726 0.383301 62.5957 0.383301 122.372V835.309C0.383301 835.635 0.421543 835.952 0.421543 836.278C0.421543 836.787 0.383301 837.276 0.383301 837.785C0.383301 1102.46 216.932 1314.78 475.962 1314.78C736.393 1314.78 948.7 1102.46 948.7 837.785C948.7 577.354 736.393 365.037 475.962 365.037ZM475.962 1081.23C452.678 1081.23 430.151 1077.76 408.728 1071.6C404.16 1069.33 399.495 1067.18 394.591 1065.47C307.096 1034.9 241.829 954.64 233.47 856.664C233.21 853.305 233.076 849.917 232.951 846.519C232.807 843.256 232.587 840.021 232.567 836.72C233.153 704.172 343.27 597.164 475.962 597.164C607.589 597.164 715.162 704.738 715.162 837.785C715.162 973.663 607.589 1081.23 475.962 1081.23Z" fill="#2B2D42"/>
<path d="M232.51 432.751V117.698C232.51 47.364 173.051 -8.10266 102.304 1.24564C43.0464 9.08726 0.383301 62.5957 0.383301 122.372V835.309C0.383301 835.635 0.421693 835.952 0.421693 836.278C0.978368 665.367 94.7601 515.37 232.51 432.751Z" fill="#8D99AE"/>
<path d="M325.083 1288.47C397.874 1312.63 473.132 1259.07 473.132 1182.37V1172.29C473.132 1128.54 447.218 1090.69 408.73 1071.59C313.47 1044.19 241.389 960.169 233.471 856.655C233.183 853.306 233.106 849.899 232.952 846.51C232.847 843.583 232.511 840.732 232.511 837.776C232.511 837.412 232.569 837.076 232.569 836.711C232.559 836.24 232.511 835.77 232.511 835.3V432.742C94.761 515.361 0.979283 665.358 0.422607 836.269C0.844832 1048.01 137.098 1226.08 325.083 1288.47Z" fill="#8D99AE"/>
</svg>
