<svg width="493" height="143" viewBox="0 0 493 143" fill="none" xmlns="http://www.w3.org/2000/svg">
<path d="M0.115524 76.8856C0.0826146 53.3256 19.6462 34.0918 43.0783 34.059C66.6381 34.0261 85.8715 53.2058 85.9045 76.7658C85.9379 100.71 66.7581 119.943 43.1983 119.976C19.7662 120.009 0.14897 100.83 0.115524 76.8856ZM43.1688 98.8489C55.0768 98.8323 64.7944 89.0874 64.7772 76.7953C64.7604 64.7592 55.0156 55.0415 43.1077 55.0581C31.0716 55.075 21.0979 64.8202 21.1147 76.8563C21.1319 89.1484 31.1328 98.8658 43.1688 98.8489Z" fill="#252422"/>
<path d="M118.951 76.7196L118.995 108.346C119.003 114.236 114.4 118.98 108.638 118.988C102.748 118.997 98.0041 114.266 97.9959 108.376L97.9517 76.7489C97.9188 53.189 117.098 33.9556 140.658 33.9227C152.31 33.9064 163.072 38.5011 170.894 46.3007C174.869 50.5206 174.878 56.9228 170.915 61.1537C166.695 65.129 160.292 65.138 156.062 61.3025C152.215 57.2105 146.578 54.9137 140.688 54.9219C128.78 54.9385 118.934 64.6835 118.951 76.7196Z" fill="#252422"/>
<path d="M227.441 34.0293C219.443 34.0405 211.897 36.292 205.426 40.1857L205.386 11.6846C205.377 5.32193 199.991 0.31168 193.593 1.16631C188.233 1.88318 184.38 6.72919 184.388 12.1368L184.478 76.6322C184.478 76.6617 184.481 76.6904 184.481 76.7199C184.481 76.7659 184.478 76.8102 184.478 76.8562C184.511 100.8 204.128 119.979 227.561 119.947C251.121 119.914 270.3 100.68 270.267 76.7364C270.234 53.1766 251.001 33.9964 227.441 34.0293ZM227.532 98.819C225.425 98.822 223.387 98.5114 221.448 97.9566C221.035 97.7514 220.612 97.5575 220.169 97.4036C212.249 94.6492 206.335 87.397 205.566 78.5347C205.543 78.2308 205.53 77.9243 205.518 77.617C205.505 77.3218 205.484 77.0292 205.482 76.7305C205.519 64.7396 215.467 55.0453 227.471 55.0285C239.378 55.0119 249.123 64.7299 249.14 76.7659C249.157 89.0581 239.439 98.8024 227.532 98.819Z" fill="#252422"/>
<path d="M205.426 40.1857L205.386 11.6846C205.377 5.32193 199.991 0.31168 193.593 1.16631C188.233 1.88318 184.38 6.72919 184.388 12.1368L184.478 76.6322C184.478 76.6617 184.481 76.6904 184.481 76.7199C184.51 61.2585 192.975 47.6772 205.426 40.1857Z" fill="#CCC5B9"/>
<path d="M213.91 117.585C220.498 119.761 227.3 114.906 227.29 107.968L227.289 107.056C227.283 103.098 224.934 99.6775 221.45 97.9545C212.829 95.4876 206.297 87.8958 205.568 78.5325C205.541 78.2295 205.534 77.9213 205.52 77.6148C205.51 77.35 205.479 77.0921 205.479 76.8247C205.479 76.7917 205.484 76.7613 205.484 76.7283C205.483 76.6858 205.478 76.6433 205.478 76.6007L205.427 40.1836C192.976 47.6751 184.512 61.2563 184.483 76.7177C184.548 95.8727 196.896 111.965 213.91 117.585Z" fill="#CCC5B9"/>
<path d="M284.964 108.119L284.876 45.1217C284.867 39.2318 289.599 34.4875 295.489 34.4793C301.25 34.4712 305.867 39.2024 305.875 45.0924L305.963 108.09C305.971 113.98 301.368 118.724 295.606 118.732C289.716 118.74 284.972 114.009 284.964 108.119Z" fill="#252422"/>
<path d="M343.504 76.4071L343.548 108.034C343.557 113.924 338.954 118.668 333.192 118.676C327.301 118.684 322.557 113.953 322.549 108.063L322.505 76.4364C322.472 52.8765 341.652 33.6431 365.212 33.6102C376.864 33.5939 387.626 38.1886 395.447 45.9882C399.422 50.2081 399.431 56.6103 395.468 60.8412C391.248 64.8165 384.846 64.8255 380.615 60.99C376.768 56.898 371.131 54.6012 365.241 54.6094C353.333 54.626 343.487 64.371 343.504 76.4071Z" fill="#252422"/>
<path d="M449.047 119.41C457.045 119.399 464.591 117.148 471.062 113.254L471.087 130.775C471.095 137.137 476.481 142.148 482.88 141.293C488.24 140.576 492.093 135.73 492.085 130.323L492.01 76.8075C492.01 76.778 492.007 76.7494 492.007 76.7198C492.007 76.6738 492.01 76.6295 492.01 76.5835C491.977 52.64 472.36 33.4603 448.927 33.493C425.367 33.5259 406.188 52.7598 406.221 76.7033C406.254 100.263 425.487 119.443 449.047 119.41ZM448.956 54.6207C451.063 54.6178 453.101 54.9284 455.04 55.4831C455.453 55.6883 455.876 55.8822 456.32 56.0361C464.239 58.7905 470.153 66.0428 470.922 74.9051C470.946 75.2089 470.958 75.5154 470.97 75.8228C470.983 76.118 471.004 76.4105 471.006 76.7092C470.97 88.7002 461.021 98.3945 449.018 98.4112C437.11 98.4279 427.365 88.7098 427.348 76.6738C427.331 64.3817 437.049 54.6373 448.956 54.6207Z" fill="#252422"/>
<path d="M471.061 113.251L471.085 130.772C471.094 137.134 476.48 142.145 482.879 141.29C488.238 140.573 492.091 135.727 492.084 130.319L492.009 76.8045C492.009 76.775 492.005 76.7463 492.005 76.7168C491.976 92.1782 483.512 105.759 471.061 113.251Z" fill="#CCC5B9"/>
<path d="M462.579 35.8489C455.991 33.6727 449.189 38.5272 449.199 45.4655L449.2 46.3772C449.206 50.3357 451.555 53.756 455.039 55.479C463.66 57.9459 470.192 65.5377 470.921 74.901C470.947 75.204 470.955 75.5122 470.969 75.8187C470.979 76.0835 471.01 76.3414 471.01 76.6088C471.01 76.6418 471.005 76.6722 471.005 76.7052C471.006 76.7477 471.01 76.7903 471.01 76.8328L471.061 113.25C483.512 105.758 491.977 92.1772 492.006 76.7158C491.941 57.5609 479.593 41.469 462.579 35.8489Z" fill="#CCC5B9"/>
</svg>
